<?xml version="1.0" standalone="no"?>
<!DOCTYPE svg PUBLIC "-//W3C//DTD SVG 20010904//EN"
 "http://www.w3.org/TR/2001/REC-SVG-20010904/DTD/svg10.dtd">
<svg version="1.0" xmlns="http://www.w3.org/2000/svg"
 width="342.000000pt" height="326.000000pt" viewBox="0 0 342.000000 326.000000"
 preserveAspectRatio="xMidYMid meet">

<g transform="translate(0.000000,326.000000) scale(0.100000,-0.100000)"
fill="#fff" stroke="none">
<path d="M385 2788 c-3 -7 -4 -564 -3 -1238 l3 -1225 1295 0 1295 0 0 1235 0
1235 -1293 3 c-1029 2 -1294 0 -1297 -10z m2535 -208 l0 -160 -1240 0 -1240 0
0 160 0 160 1240 0 1240 0 0 -160z m0 -1210 l0 -990 -1240 0 -1240 0 0 990 0
990 1240 0 1240 0 0 -990z"/>
<path d="M551 2651 c-25 -23 -31 -37 -31 -69 0 -67 68 -119 122 -92 63 33 83
87 52 138 -34 58 -95 68 -143 23z m89 -46 c26 -31 -13 -82 -44 -56 -16 14 -22
52 -9 64 11 12 40 8 53 -8z"/>
<path d="M851 2649 c-55 -54 -39 -119 37 -158 33 -18 86 4 108 44 53 99 -67
193 -145 114z m87 -41 c17 -17 15 -43 -4 -59 -31 -26 -70 25 -44 56 15 18 32
19 48 3z"/>
<path d="M1171 2666 c-73 -41 -63 -142 18 -176 26 -10 36 -9 67 6 68 34 75
120 14 164 -32 23 -65 25 -99 6z m78 -67 c11 -19 10 -24 -8 -43 -17 -16 -25
-18 -39 -10 -22 14 -27 41 -12 59 18 21 43 18 59 -6z"/>
<path d="M1594 2222 c-10 -6 -43 -88 -81 -204 -9 -26 -25 -54 -37 -61 -47 -30
-65 -27 -183 29 -63 30 -122 54 -131 54 -25 0 -122 -101 -122 -127 0 -12 23
-69 50 -125 73 -150 66 -186 -45 -227 -33 -13 -82 -31 -109 -42 -27 -10 -55
-19 -62 -19 -20 0 -37 -77 -29 -137 7 -59 11 -63 103 -93 133 -44 165 -58 178
-81 22 -41 16 -74 -36 -183 -27 -58 -50 -116 -50 -129 0 -16 18 -41 55 -76 64
-61 54 -61 200 10 108 52 130 57 174 35 22 -12 33 -32 60 -113 18 -54 40 -114
50 -133 l16 -35 85 0 85 0 16 35 c10 19 32 79 50 133 28 83 37 99 62 112 45
23 62 19 172 -34 147 -71 136 -71 200 -10 37 35 55 60 55 76 0 13 -22 71 -50
129 -27 58 -50 116 -50 130 0 37 26 81 52 87 28 6 162 54 204 73 25 11 33 22
38 51 14 86 0 153 -31 153 -6 0 -32 9 -59 19 -27 11 -77 30 -112 42 -66 23
-92 52 -92 101 0 13 23 70 50 126 28 56 50 113 50 125 0 27 -97 127 -122 127
-9 0 -69 -25 -132 -55 -114 -54 -125 -56 -175 -32 -25 13 -26 15 -78 162 -20
55 -41 103 -47 107 -6 4 -45 8 -86 8 -41 0 -80 -4 -86 -8z m128 -54 c9 -7 23
-33 31 -58 41 -120 68 -186 81 -196 8 -6 39 -18 68 -28 l53 -18 119 57 118 57
34 -33 c19 -18 34 -36 34 -41 0 -4 -25 -60 -56 -124 l-56 -116 22 -59 c13 -34
32 -65 44 -71 20 -12 158 -63 201 -75 11 -3 26 -10 33 -16 13 -10 16 -75 4
-93 -5 -9 -148 -64 -233 -91 -21 -6 -62 -94 -62 -130 0 -16 24 -77 53 -136
l53 -108 -34 -35 c-18 -19 -37 -34 -42 -34 -4 0 -55 23 -113 51 -58 28 -113
51 -123 52 -13 1 -131 -41 -131 -47 -1 -8 -70 -199 -81 -221 -13 -27 -19 -30
-62 -30 l-49 0 -19 55 c-11 30 -27 75 -35 100 -31 92 -34 96 -86 120 -27 12
-60 23 -72 23 -12 0 -70 -24 -129 -52 -60 -28 -112 -51 -116 -51 -4 0 -22 15
-40 34 l-34 35 53 108 c54 111 62 145 42 188 -7 14 -17 36 -23 49 -6 13 -19
27 -28 29 -85 27 -228 82 -233 91 -12 18 -9 83 5 93 6 6 21 13 32 16 78 22
193 69 210 85 11 11 28 42 38 70 l18 50 -55 117 c-31 65 -56 121 -56 124 0 4
15 22 34 40 l33 32 99 -46 c148 -71 140 -69 206 -44 67 25 71 30 118 169 34
101 48 120 90 120 14 0 33 -6 42 -12z"/>
<path d="M1565 1728 c-84 -30 -157 -99 -201 -186 -24 -49 -28 -69 -28 -142 0
-75 4 -93 32 -152 36 -74 94 -132 170 -169 68 -34 216 -34 284 0 75 36 134 95
170 168 29 59 32 75 32 152 0 74 -4 94 -29 144 -36 73 -98 135 -169 170 -47
23 -67 27 -143 26 -48 0 -101 -5 -118 -11z m240 -69 c54 -26 106 -77 136 -135
35 -70 34 -188 -4 -260 -85 -166 -322 -206 -453 -78 -70 69 -88 114 -88 214 0
95 15 134 82 202 81 85 218 108 327 57z"/>
</g>
</svg>
